<svg width="60" height="56" viewBox="0 0 60 56" fill="none" xmlns="http://www.w3.org/2000/svg">
<path d="M42.6208 41.1328C42.6464 41.1072 42.6464 41.056 42.672 41.0304C42.6976 40.9792 42.6976 40.928 42.7232 40.8768C42.7232 40.8512 42.7232 40.8512 42.7488 40.8256C42.7744 40.7744 42.7744 40.7232 42.7744 40.672C42.7744 40.6464 42.7744 40.6208 42.7744 40.6208C42.7744 40.5696 42.7744 40.5184 42.8 40.4672C42.8 40.4416 42.8 40.416 42.8 40.3904C42.8 40.3392 42.8 40.3136 42.8 40.2624C42.8 40.2112 42.8 40.1856 42.8 40.1344C42.8 40.1088 42.8 40.0832 42.8 40.0576C42.8 40.0064 42.8 39.9552 42.7744 39.904C42.7744 39.8784 42.7744 39.8528 42.7744 39.8528C42.7744 39.8016 42.7488 39.7504 42.7488 39.6736C42.7488 39.648 42.7488 39.648 42.7232 39.6224C42.6976 39.5712 42.6976 39.52 42.672 39.4432C42.672 39.4176 42.6464 39.392 42.6464 39.3408C42.6208 39.2896 42.6208 39.264 42.5952 39.2128C42.5696 39.136 42.5184 39.0592 42.4928 39.008L20.272 1.83679C20.272 1.81119 20.2464 1.81119 20.2464 1.78559C20.2208 1.75999 20.1952 1.70879 20.1696 1.68319C20.144 1.65759 20.1184 1.63199 20.0928 1.58079C20.0672 1.55519 20.0416 1.52959 20.016 1.50399C19.9904 1.47839 19.9648 1.45279 19.9392 1.40159C19.9136 1.37599 19.888 1.35039 19.8624 1.32479C19.8368 1.29919 19.7856 1.27359 19.76 1.22239C19.7344 1.19679 19.7088 1.17119 19.6832 1.17119C19.6576 1.14559 19.6064 1.11999 19.5808 1.09439C19.5552 1.06879 19.5296 1.04319 19.504 1.04319C19.4784 1.01759 19.4272 0.991988 19.4016 0.991988C19.376 0.966388 19.3248 0.966388 19.2992 0.940788C19.2736 0.915188 19.248 0.915188 19.1968 0.889588C19.1456 0.863988 19.12 0.863988 19.0688 0.838388C19.0432 0.838388 19.0176 0.812788 18.9664 0.812788C18.9152 0.787188 18.8896 0.787188 18.8384 0.787188C18.8128 0.787188 18.7616 0.761588 18.736 0.761588C18.6848 0.761588 18.6592 0.735988 18.608 0.735988C18.5568 0.735988 18.5312 0.710388 18.48 0.710388C18.4544 0.710388 18.4032 0.710388 18.3776 0.710388C18.3264 0.710388 18.2752 0.710388 18.2496 0.710388C18.224 0.710388 18.224 0.710388 18.1984 0.710388H2.65918C1.35358 0.710388 0.278381 1.75999 0.278381 3.09119C0.278381 4.39679 1.32798 5.47199 2.65918 5.47199H16.8928L37.68 40.2112L32.56 48.7616L19.8112 28.1536C19.12 27.0272 17.6608 26.6944 16.56 27.3856C15.4336 28.0768 15.1008 29.536 15.792 30.6368L30.5888 54.5728C31.0496 55.2896 31.8176 55.6992 32.6112 55.6992C33.0464 55.6992 33.456 55.5968 33.8656 55.3408C34.224 55.1104 34.5056 54.8288 34.6848 54.4704C34.6848 54.4704 34.6848 54.4448 34.7104 54.4448L42.4928 41.44C42.544 41.3632 42.5696 41.312 42.5952 41.2352C42.5952 41.184 42.5952 41.1584 42.6208 41.1328Z" fill="url(#paint0_linear)"/>
<path d="M58.288 0.659185C57.9552 0.556785 57.5968 0.531185 57.2896 0.582385L39.1648 0.505585C39.1392 0.505585 39.1392 0.505585 39.1136 0.505585C39.0624 0.505585 39.0368 0.505585 38.9856 0.505585C38.96 0.505585 38.9088 0.505585 38.8832 0.505585C38.832 0.505585 38.8064 0.505585 38.7552 0.531185C38.7296 0.531185 38.6784 0.556784 38.6528 0.556784C38.6272 0.556784 38.576 0.582385 38.5504 0.582385C38.4992 0.582385 38.4736 0.607985 38.4224 0.607985C38.3968 0.607985 38.3712 0.633585 38.32 0.633585C38.2688 0.659185 38.2432 0.659184 38.192 0.684784C38.1664 0.684784 38.1408 0.710385 38.1152 0.735985C38.064 0.761585 38.0384 0.787184 37.9872 0.812784C37.9872 0.812784 37.9616 0.838385 37.936 0.838385C37.9104 0.838385 37.9104 0.863985 37.8848 0.863985C37.8592 0.889585 37.808 0.915184 37.7824 0.940784C37.7568 0.966385 37.7312 0.991985 37.68 1.01758C37.6544 1.04318 37.6288 1.06878 37.6032 1.09438C37.5776 1.11998 37.5264 1.14558 37.5008 1.17118C37.4752 1.19678 37.4496 1.22238 37.424 1.24798C37.3984 1.27358 37.3728 1.32478 37.3216 1.35038C37.296 1.37598 37.296 1.40158 37.2704 1.42718C37.2448 1.45278 37.2192 1.50398 37.1936 1.52958C37.168 1.55518 37.168 1.58078 37.1424 1.60638C37.1168 1.63198 37.0912 1.68318 37.0656 1.70878C37.04 1.73438 37.04 1.78559 37.0144 1.81119C36.9888 1.83679 36.9888 1.88798 36.9632 1.91358C36.9376 1.96478 36.9376 1.99038 36.912 2.04158C36.912 2.06718 36.8864 2.09278 36.8864 2.14398C36.8608 2.19518 36.8608 2.22078 36.8352 2.27198C36.8352 2.29758 36.8096 2.32318 36.8096 2.37438C36.8096 2.42558 36.784 2.45118 36.784 2.50238C36.784 2.52798 36.7584 2.57918 36.7584 2.60478C36.7584 2.63038 36.7584 2.68159 36.7584 2.70719C36.7584 2.75839 36.7584 2.78399 36.7584 2.83519C36.7584 2.86079 36.7584 2.86079 36.7584 2.88638C36.7584 2.91198 36.7584 2.91199 36.7584 2.93759C36.7584 2.98879 36.7584 3.03999 36.7584 3.09119C36.7584 3.11679 36.7584 3.16799 36.7584 3.19359C36.7584 3.24479 36.7584 3.27039 36.784 3.32159C36.784 3.34719 36.784 3.39839 36.8096 3.42399C36.8096 3.47519 36.8352 3.50079 36.8352 3.52639C36.8352 3.57758 36.8608 3.60318 36.8608 3.65439C36.8608 3.67999 36.8864 3.73118 36.8864 3.75678C36.912 3.80799 36.912 3.83359 36.9376 3.88478C36.9376 3.91038 36.9632 3.93599 36.9888 3.96159C37.0144 4.01279 37.04 4.03839 37.0656 4.08959C37.0656 4.11519 37.0912 4.11519 37.0912 4.14078L42.2112 12.6912C42.6464 13.4336 43.44 13.8432 44.2592 13.8432C44.6688 13.8432 45.104 13.7408 45.4624 13.5104C46.5888 12.8448 46.9472 11.3856 46.2816 10.2592L43.312 5.31839L54.192 5.36959C50.0192 14.816 40.4704 21.1648 29.9744 21.1648C18.2752 21.1648 8.11201 13.664 4.68161 2.50238C4.29761 1.24798 2.96641 0.556784 1.71201 0.940784C0.45761 1.32478 -0.23359 2.65598 0.15041 3.91039C2.07041 10.08 6.01281 15.6864 11.2864 19.6288C16.7136 23.6992 23.1904 25.8496 30 25.8496C36.8608 25.8496 43.3632 23.6736 48.7904 19.552C54.064 15.5584 58.0064 9.90079 59.8752 3.60319C60.2592 2.34879 59.5424 1.01758 58.288 0.659185Z" fill="url(#paint1_linear)"/>
<path d="M29.0784 25.824L34.4544 34.8352H39.984L34.4288 25.5168C32.9696 25.7216 31.4848 25.824 29.9744 25.824C29.6672 25.8496 29.3856 25.8496 29.0784 25.824Z" fill="url(#paint2_linear)"/>
<defs>
<linearGradient id="paint0_linear" x1="6.04494" y1="8.81566" x2="52.2231" y2="54.9938" gradientUnits="userSpaceOnUse">
<stop stop-color="#F05B80"/>
<stop offset="0.9987" stop-color="#4158F0"/>
</linearGradient>
<linearGradient id="paint1_linear" x1="19.7426" y1="-4.88199" x2="65.9206" y2="41.296" gradientUnits="userSpaceOnUse">
<stop stop-color="#F05B80"/>
<stop offset="0.9987" stop-color="#4158F0"/>
</linearGradient>
<linearGradient id="paint2_linear" x1="36.912" y1="35.168" x2="31.9683" y2="25.8461" gradientUnits="userSpaceOnUse">
<stop stop-opacity="0"/>
<stop offset="0.145833" stop-opacity="0"/>
<stop offset="0.9987"/>
</linearGradient>
</defs>
</svg>
